<svg width="500" height="500" viewBox="0 0 500 500" fill="none" xmlns="http://www.w3.org/2000/svg">
<path d="M179.094 182.161V264.374L159.859 264.423V284.366L139.916 264.423H38.1221V182.161H179.094Z" fill="#EBEBEB"/>
<path d="M81.9542 223.292C81.9542 226.981 78.9642 229.971 75.2752 229.971C71.5862 229.971 68.5962 226.981 68.5962 223.292C68.5962 219.603 71.5862 216.612 75.2752 216.612C78.9642 216.612 81.9542 219.602 81.9542 223.292Z" fill="white"/>
<path d="M115.287 223.292C115.287 226.981 112.297 229.971 108.608 229.971C104.919 229.971 101.929 226.981 101.929 223.292C101.929 219.603 104.919 216.612 108.608 216.612C112.297 216.612 115.287 219.602 115.287 223.292Z" fill="white"/>
<path d="M148.62 223.292C148.62 226.981 145.63 229.971 141.941 229.971C138.252 229.971 135.262 226.981 135.262 223.292C135.262 219.603 138.252 216.612 141.941 216.612C145.63 216.612 148.62 219.602 148.62 223.292Z" fill="white"/>
<path d="M237.319 325.134V431.627L262.234 431.691V457.523L288.067 431.691H419.923V325.134H237.319Z" stroke="#EBEBEB" stroke-miterlimit="10"/>
<path d="M363.146 378.412C363.146 383.19 367.02 387.064 371.798 387.064C376.576 387.064 380.45 383.19 380.45 378.412C380.45 373.633 376.576 369.76 371.798 369.76C367.02 369.759 363.146 373.633 363.146 378.412Z" fill="#EBEBEB"/>
<path d="M319.969 378.412C319.969 383.19 323.843 387.064 328.621 387.064C333.4 387.064 337.273 383.19 337.273 378.412C337.273 373.633 333.399 369.76 328.621 369.76C323.842 369.759 319.969 373.633 319.969 378.412Z" fill="#EBEBEB"/>
<path d="M276.792 378.412C276.792 383.19 280.665 387.064 285.444 387.064C290.223 387.064 294.096 383.19 294.096 378.412C294.096 373.633 290.222 369.76 285.444 369.76C280.665 369.759 276.792 373.633 276.792 378.412Z" fill="#EBEBEB"/>
<path d="M256.835 42.477V162.056L284.812 162.127V191.134L313.819 162.127H461.878V42.477H256.835Z" stroke="#EBEBEB" stroke-miterlimit="10"/>
<path d="M398.124 102.301C398.124 107.666 402.474 112.016 407.839 112.016C413.204 112.016 417.554 107.666 417.554 102.301C417.554 96.935 413.204 92.586 407.839 92.586C402.474 92.586 398.124 96.935 398.124 102.301Z" fill="#EBEBEB"/>
<path d="M349.641 102.301C349.641 107.666 353.99 112.016 359.356 112.016C364.722 112.016 369.071 107.666 369.071 102.301C369.071 96.935 364.721 92.586 359.356 92.586C353.991 92.586 349.641 96.935 349.641 102.301Z" fill="#EBEBEB"/>
<path d="M301.159 102.301C301.159 107.666 305.508 112.016 310.874 112.016C316.24 112.016 320.589 107.666 320.589 102.301C320.589 96.935 316.239 92.586 310.874 92.586C305.508 92.586 301.159 96.935 301.159 102.301Z" fill="#EBEBEB"/>
<path d="M430.148 381.852C452.359 375.956 465.583 353.17 459.687 330.96C453.79 308.75 431.005 295.525 408.795 301.422C386.584 307.319 373.36 330.104 379.256 352.314C385.153 374.524 407.938 387.749 430.148 381.852Z" fill="#EBEBEB"/>
<path opacity="0.5" d="M406.941 381.324C385.031 374.403 372.881 351.023 379.802 329.114C386.725 307.198 410.099 295.046 432.008 301.967C440.426 304.626 447.401 309.714 452.409 316.214C448.133 311.076 442.376 307.068 435.53 304.905C416.479 298.887 396.154 309.449 390.135 328.506C384.117 347.557 394.685 367.884 413.736 373.901C432.793 379.921 453.119 369.353 459.137 350.302C460.76 345.163 461.177 339.935 460.546 334.921C461.575 341.165 461.189 347.734 459.153 354.179C452.233 376.09 428.857 388.247 406.941 381.324Z" fill="#DBDBDB"/>
<path d="M408.596 329.578C407.622 332.663 404.33 334.375 401.245 333.4C398.16 332.425 396.449 329.134 397.423 326.049C398.398 322.964 401.689 321.253 404.774 322.227C407.859 323.201 409.57 326.492 408.596 329.578Z" fill="#C7C7C7"/>
<path d="M446.489 341.548C445.514 344.633 442.223 346.344 439.138 345.37C436.053 344.395 434.342 341.104 435.316 338.019C436.29 334.934 439.582 333.222 442.667 334.197C445.753 335.171 447.464 338.462 446.489 341.548Z" fill="#C7C7C7"/>
<path d="M430.91 334.763C430.279 336.76 429.004 338.371 427.383 339.45C425.237 340.877 422.486 341.359 419.827 340.52C417.181 339.684 415.2 337.707 414.263 335.306C413.562 333.493 413.444 331.441 414.074 329.445L430.91 334.763Z" fill="#C7C7C7"/>
<path d="M427.383 339.45C425.237 340.877 422.486 341.359 419.827 340.52C417.181 339.684 415.2 337.707 414.263 335.306C416.446 334.339 419.053 334.149 421.593 334.951C424.133 335.753 426.152 337.405 427.383 339.45Z" fill="#DBDBDB"/>
<path d="M134.271 68.732C139.361 94.819 122.341 120.093 96.2542 125.183C70.1672 130.273 44.8932 113.252 39.8032 87.166C34.7122 61.079 51.7332 35.805 77.8202 30.715C103.907 25.625 129.181 42.645 134.271 68.732Z" fill="#EBEBEB"/>
<path opacity="0.5" d="M96.2521 125.185C70.1691 130.275 44.8951 113.248 39.8061 87.165C34.7151 61.075 51.7351 35.802 77.8181 30.713C87.8391 28.758 97.7381 30.067 106.421 33.899C99.2361 31.045 91.1711 30.159 83.0211 31.749C60.3421 36.175 45.5391 58.145 49.9661 80.832C54.3911 103.511 76.3691 118.312 99.0491 113.887C121.735 109.46 136.537 87.482 132.111 64.803C130.917 58.685 128.449 53.144 125.034 48.401C129.533 54.173 132.775 61.06 134.272 68.732C139.36 94.815 122.342 120.094 96.2521 125.185Z" fill="#DBDBDB"/>
<path d="M56.5422 76.935C55.7912 75.176 55.9252 73.041 56.7762 71.196C57.1912 70.258 57.8592 69.413 58.6812 68.723C59.5122 68.039 60.5372 67.584 61.5872 67.37C62.6402 67.178 63.7602 67.22 64.7862 67.544C65.8052 67.88 66.7422 68.414 67.4762 69.132C68.9532 70.53 69.8632 72.469 69.8142 74.381C68.9942 72.688 67.7992 71.352 66.4322 70.429C65.0542 69.508 63.5012 69.182 61.9892 69.464C60.4812 69.758 59.1612 70.641 58.2212 72.009C57.2932 73.376 56.6742 75.06 56.5422 76.935Z" fill="#C7C7C7"/>
<path d="M114.42 62.906C115.137 66.579 112.74 70.138 109.067 70.854C105.394 71.571 101.835 69.174 101.119 65.501C100.402 61.828 102.799 58.269 106.472 57.553C110.144 56.836 113.703 59.233 114.42 62.906Z" fill="#C7C7C7"/>
<path d="M74.8832 72.38C74.8832 72.38 77.5251 76.797 84.8931 76.855C84.8931 76.855 82.5052 90.501 74.1772 86.404C65.8492 82.308 74.8832 72.38 74.8832 72.38Z" fill="#DBDBDB"/>
<path d="M72.6272 68.064C73.9722 70.767 75.9152 73.102 78.3332 74.49C80.7612 75.872 83.6172 76.121 86.3852 75.596C89.1492 75.131 91.7022 73.844 93.4672 71.665C95.2322 69.493 96.2822 66.654 96.7312 63.667C97.1712 66.671 96.5862 69.935 94.8122 72.652C93.9382 74.018 92.6982 75.154 91.3112 76.026C89.8972 76.857 88.3352 77.402 86.7592 77.693C85.1862 77.951 83.5452 78.018 81.9312 77.748C80.3252 77.448 78.7552 76.84 77.4392 75.883C74.7962 73.973 73.1422 71.055 72.6272 68.064Z" fill="#C7C7C7"/>
<path d="M76.2102 82.936C76.3842 81.584 76.8532 80.371 77.3912 79.192C77.9592 78.027 78.5992 76.895 79.5362 75.903C79.3642 77.256 78.8952 78.469 78.3552 79.647C77.7842 80.812 77.1452 81.943 76.2102 82.936Z" fill="#C7C7C7"/>
<path d="M333.867 448.021C336.815 433.115 327.12 418.641 312.214 415.693C297.308 412.745 282.834 422.439 279.886 437.346C276.939 452.252 286.633 466.726 301.539 469.674C316.445 472.621 330.919 462.927 333.867 448.021Z" fill="#EBEBEB"/>
<path opacity="0.5" d="M311.203 469.839C296.2 472.232 282.095 462.004 279.703 447C277.31 431.992 287.533 417.889 302.537 415.496C308.301 414.577 313.931 415.521 318.817 417.881C314.768 416.108 310.178 415.443 305.489 416.19C292.443 418.271 283.552 430.531 285.633 443.581C287.714 456.627 299.978 465.518 313.024 463.437C326.074 461.356 334.965 449.091 332.884 436.045C332.323 432.526 331.022 429.311 329.164 426.534C331.621 429.921 333.337 433.92 334.041 438.333C336.434 453.338 326.211 467.446 311.203 469.839Z" fill="#DBDBDB"/>
<path d="M296.865 438.753C297.202 440.866 295.762 442.852 293.65 443.189C291.537 443.526 289.551 442.086 289.214 439.974C288.877 437.861 290.317 435.875 292.43 435.538C294.542 435.2 296.528 436.64 296.865 438.753Z" fill="#C7C7C7"/>
<path d="M322.814 434.614C323.151 436.727 321.711 438.713 319.599 439.05C317.486 439.387 315.5 437.947 315.163 435.835C314.826 433.722 316.266 431.736 318.378 431.399C320.491 431.062 322.477 432.501 322.814 434.614Z" fill="#C7C7C7"/>
<path d="M312.021 441.217C312.613 444.932 310.744 448.319 307.846 448.781C304.948 449.243 302.118 446.606 301.525 442.891C300.933 439.176 302.802 435.789 305.7 435.327C308.599 434.865 311.429 437.502 312.021 441.217Z" fill="#C7C7C7"/>
<path d="M287.254 434.696C287.254 434.696 289.46 430.229 295.283 431.894Z" fill="#C7C7C7"/>
<path d="M323.035 428.989C323.035 428.989 319.549 425.429 314.532 428.823Z" fill="#C7C7C7"/>
<path d="M359.124 377.268L354.567 391.047L354.556 391.045C353.284 393.293 350.791 394.712 347.382 394.79L222.213 397.672C215.223 397.832 206.986 392.281 203.836 385.286L89.805 131.962C88.361 128.747 88.227 125.788 89.184 123.507L93.705 109.837L229.764 114.652L235.512 126.304C237.058 127.953 238.347 129.8 239.235 131.772L250.238 156.224L359.124 377.268Z" fill="#263238"/>
<path d="M351.936 381.01L226.767 383.892C219.777 384.052 211.54 378.501 208.39 371.506L94.3591 118.183C91.2021 111.175 94.3241 105.371 101.313 105.211L226.482 102.329C233.482 102.171 241.712 107.709 244.87 114.717L358.902 368.04C362.052 375.036 358.936 380.852 351.936 381.01Z" fill="#37474F"/>
<path d="M353.491 394.3L354.404 391.538C354.271 392.554 353.964 393.482 353.491 394.3Z" fill="#37474F"/>
<path d="M175.945 114.646L161.795 114.972C161.312 114.983 160.748 114.608 160.534 114.133C160.32 113.658 160.539 113.265 161.021 113.254L175.171 112.928C175.654 112.917 176.218 113.292 176.432 113.767C176.645 114.241 176.427 114.635 175.945 114.646Z" fill="#263238"/>
<path d="M242.932 121.608L353.164 363.664C356.28 370.506 353.556 376.154 347.088 376.294L231.461 378.788C224.978 378.928 217.213 373.506 214.097 366.664L103.864 124.607C97.5169 110.669 102.452 109.876 108.935 109.736L132.093 109.236C133.439 109.207 135.22 110.677 136.064 112.53L136.428 113.329C138.404 117.669 140.842 117.631 143.832 117.567L197.395 116.412C200.407 116.347 202.809 116.28 200.832 111.94L200.468 111.141C199.625 109.289 200.03 107.771 201.398 107.742L224.563 107.242C231.03 107.103 237.119 108.842 242.932 121.608Z" fill="white"/>
<path d="M242.933 121.606L253.94 145.777L114.872 148.777L103.865 124.606C97.5179 110.668 102.453 109.875 108.936 109.735L132.094 109.236C133.44 109.207 135.221 110.677 136.064 112.529L136.428 113.328C138.404 117.668 140.842 117.63 143.832 117.566L197.395 116.411C200.407 116.346 202.809 116.279 200.832 111.939L200.468 111.14C199.624 109.287 200.03 107.77 201.398 107.741L224.563 107.241C231.032 107.102 237.12 108.841 242.933 121.606Z" fill="#22211F"/>
<path d="M125.297 140.463L119.476 136.791L121.872 132.942L122.812 133.591L120.839 136.761L125.633 139.786L125.297 140.463Z" fill="white"/>
<path d="M236.741 131.896C236.94 132.332 236.739 132.694 236.292 132.703C235.846 132.713 235.323 132.367 235.124 131.931C234.925 131.495 235.126 131.134 235.573 131.124C236.02 131.114 236.542 131.46 236.741 131.896Z" fill="white"/>
<path d="M238.02 134.705C238.219 135.141 238.018 135.503 237.571 135.512C237.125 135.522 236.602 135.176 236.403 134.74C236.204 134.304 236.405 133.943 236.852 133.933C237.299 133.923 237.821 134.269 238.02 134.705Z" fill="white"/>
<path d="M239.299 137.513C239.498 137.949 239.297 138.311 238.85 138.32C238.404 138.33 237.881 137.984 237.682 137.548C237.483 137.112 237.684 136.75 238.131 136.741C238.578 136.732 239.1 137.077 239.299 137.513Z" fill="white"/>
<path d="M130.572 114.76C130.53 114.834 130.489 114.908 130.447 114.982C130.423 115.024 130.4 115.067 130.377 115.109C129.516 114.552 128.662 114.264 127.824 114.281C126.986 114.299 126.408 114.618 126.064 115.204C126.006 115.164 125.947 115.123 125.887 115.083C125.78 115.012 125.674 114.941 125.567 114.871C125.565 114.869 125.561 114.869 125.559 114.868C125.558 114.866 125.557 114.863 125.557 114.863C125.561 114.859 125.564 114.854 125.568 114.85C125.625 114.766 125.678 114.68 125.74 114.599C125.867 114.433 126.026 114.294 126.209 114.177C126.425 114.039 126.669 113.934 126.947 113.873C127.079 113.844 127.218 113.828 127.355 113.807C127.402 113.8 127.721 113.792 127.732 113.792C127.834 113.797 127.934 113.799 128.037 113.808C128.323 113.831 128.617 113.89 128.917 113.976C129.134 114.039 129.351 114.117 129.567 114.211C129.796 114.309 130.02 114.422 130.241 114.551C130.352 114.616 130.462 114.686 130.572 114.754C130.571 114.756 130.572 114.758 130.572 114.76Z" fill="white"/>
<path d="M127.086 115.874C126.915 115.762 126.748 115.652 126.576 115.539C126.803 115.144 127.167 114.888 127.693 114.802C128.479 114.673 129.311 114.906 130.176 115.456C130.109 115.576 130.044 115.692 129.978 115.809C129.405 115.438 128.83 115.244 128.265 115.256C127.703 115.269 127.315 115.484 127.086 115.874Z" fill="white"/>
<path d="M129.783 116.164C129.718 116.281 129.653 116.397 129.588 116.515C129.296 116.326 129 116.224 128.71 116.231C128.421 116.238 128.223 116.349 128.106 116.549C127.936 116.437 127.767 116.325 127.599 116.214C127.897 115.628 128.883 115.561 129.783 116.164Z" fill="white"/>
<path d="M129.307 116.836C129.385 117.008 129.306 117.15 129.13 117.153C128.955 117.157 128.749 117.021 128.671 116.849C128.593 116.678 128.672 116.536 128.847 116.532C129.023 116.529 129.229 116.665 129.307 116.836Z" fill="white"/>
<path d="M109.051 115.891C108.825 115.394 109.053 114.982 109.563 114.971C110.072 114.96 110.668 115.354 110.895 115.852C111.122 116.349 110.892 116.761 110.383 116.772C109.873 116.783 109.277 116.389 109.051 115.891Z" fill="white"/>
<path d="M111.954 115.829C111.728 115.332 111.957 114.92 112.466 114.909C112.975 114.898 113.571 115.292 113.798 115.79C114.024 116.287 113.795 116.699 113.286 116.71C112.777 116.72 112.18 116.326 111.954 115.829Z" fill="white"/>
<path d="M114.857 115.766C114.63 115.269 114.859 114.857 115.368 114.846C115.877 114.835 116.473 115.229 116.7 115.727C116.926 116.224 116.697 116.636 116.188 116.647C115.679 116.658 115.083 116.263 114.857 115.766Z" fill="white"/>
<path d="M117.76 115.703C117.533 115.206 117.762 114.794 118.271 114.783C118.78 114.772 119.376 115.166 119.603 115.664C119.829 116.161 119.6 116.573 119.091 116.584C118.582 116.595 117.986 116.201 117.76 115.703Z" fill="white"/>
<path d="M120.663 115.641C120.437 115.144 120.666 114.732 121.175 114.721C121.684 114.71 122.28 115.104 122.507 115.602C122.733 116.099 122.504 116.511 121.995 116.522C121.485 116.532 120.889 116.138 120.663 115.641Z" fill="white"/>
<path d="M229.52 115.283L222.007 115.445L220.456 112.039L227.969 111.877L229.52 115.283ZM222.225 115.053L228.952 114.908L227.751 112.27L221.024 112.415L222.225 115.053Z" fill="white"/>
<path d="M226.185 112.503L221.349 112.607L222.37 114.85L227.207 114.745L226.185 112.503Z" fill="white"/>
<path d="M229.825 114.474L229.158 114.488L228.331 112.672L228.998 112.657L229.825 114.474Z" fill="white"/>
<path d="M231.491 365.582L230.811 365.596L232.2 368.646L230.93 368.673L230.222 367.119L227.974 367.168L228.681 368.722L227.411 368.749L226.023 365.7L225.343 365.714L227.003 362.544L231.491 365.582Z" fill="#EBEBEB"/>
<path d="M340.626 361.138L333.216 361.298L332.745 360.263L340.154 360.104L340.626 361.138Z" fill="#EBEBEB"/>
<path d="M341.791 363.697L334.382 363.857L333.91 362.823L341.32 362.663L341.791 363.697Z" fill="#EBEBEB"/>
<path d="M342.957 366.257L335.547 366.417L335.076 365.382L342.485 365.222L342.957 366.257Z" fill="#EBEBEB"/>
<path d="M285.67 364.493L284.563 366.735L281.457 364.584L281.673 364.235L284.232 366.007L285.143 364.16L285.67 364.493Z" fill="#EBEBEB"/>
<path d="M285.597 369.005C283.487 369.051 281.006 367.41 280.067 365.349C279.128 363.287 280.081 361.573 282.191 361.527C284.301 361.481 286.782 363.122 287.721 365.183C288.66 367.245 287.707 368.959 285.597 369.005ZM282.416 362.02C280.584 362.06 279.757 363.547 280.572 365.337C281.387 367.127 283.54 368.55 285.372 368.511C287.204 368.472 288.031 366.984 287.216 365.194C286.401 363.404 284.248 361.981 282.416 362.02Z" fill="#EBEBEB"/>
<path d="M164.848 134.056L166.618 137.943C166.708 138.14 166.608 138.309 166.405 138.313C166.196 138.317 165.959 138.156 165.869 137.959L164.606 135.185L164.235 136.524C164.206 136.624 164.122 136.679 164 136.682H163.993H163.986C163.865 136.685 163.726 136.635 163.607 136.537L162.043 135.24L163.306 138.014C163.396 138.211 163.303 138.38 163.094 138.384C162.892 138.388 162.648 138.227 162.558 138.03L160.788 134.143C160.698 133.945 160.791 133.777 160.994 133.772C161.001 133.772 161.001 133.772 161.014 133.772C161.122 133.77 161.267 133.82 161.38 133.917L163.55 135.706L164.064 133.859C164.093 133.759 164.177 133.703 164.298 133.701C164.298 133.701 164.298 133.701 164.305 133.701C164.51 133.704 164.758 133.859 164.848 134.056Z" fill="white"/>
<path d="M167.916 137.915L166.146 134.028C166.053 133.824 166.143 133.662 166.352 133.658H166.359C166.359 133.658 166.359 133.658 166.373 133.658L168.558 133.611C168.754 133.607 169.001 133.761 169.094 133.966C169.187 134.17 169.087 134.338 168.891 134.343L167.064 134.382L167.613 135.588L169.184 135.554C169.386 135.55 169.633 135.717 169.72 135.908C169.813 136.112 169.72 136.281 169.517 136.285L167.946 136.319L168.498 137.531L170.325 137.492C170.521 137.488 170.771 137.649 170.864 137.853C170.954 138.05 170.854 138.219 170.658 138.223L168.473 138.27C168.46 138.27 168.457 138.264 168.457 138.264L168.453 138.271C168.243 138.274 168.006 138.113 167.916 137.915Z" fill="white"/>
<path d="M171.413 137.048C171.468 136.901 171.682 136.876 171.884 136.991C172.288 137.222 172.927 137.487 173.403 137.47C173.74 137.463 173.999 137.358 174.135 137.208C174.271 137.059 174.284 136.892 174.209 136.728C174.17 136.642 174.123 136.583 174.053 136.518C173.982 136.453 173.892 136.388 173.761 136.325C173.508 136.204 173.127 136.099 172.696 136.035H172.683C172.339 135.982 172.006 135.91 171.696 135.797C171.386 135.684 171.089 135.524 170.835 135.297C170.662 135.141 170.524 134.957 170.434 134.76C170.254 134.365 170.327 134.017 170.535 133.787C170.75 133.556 171.104 133.422 171.542 133.413C172.189 133.399 172.809 133.698 173.252 133.908C173.455 134.01 173.598 134.22 173.559 134.373C173.53 134.533 173.335 134.584 173.125 134.482C172.679 134.266 172.258 134.075 171.847 134.084C171.544 134.091 171.316 134.189 171.194 134.324C171.072 134.46 171.064 134.606 171.127 134.745C171.163 134.824 171.201 134.877 171.258 134.929C171.316 134.981 171.403 135.039 171.518 135.096C171.747 135.211 172.099 135.31 172.493 135.368H172.506C172.88 135.426 173.236 135.505 173.563 135.624C173.899 135.75 174.22 135.916 174.486 136.156C174.659 136.312 174.81 136.508 174.903 136.713C175.095 137.135 175.017 137.502 174.788 137.746C174.566 137.991 174.191 138.138 173.712 138.149C172.981 138.158 172.205 137.816 171.686 137.528C171.483 137.413 171.364 137.195 171.413 137.048Z" fill="white"/>
<path d="M175.846 136.952C175.901 136.804 176.115 136.78 176.317 136.895C176.721 137.126 177.36 137.391 177.836 137.374C178.173 137.367 178.432 137.262 178.568 137.112C178.704 136.963 178.717 136.796 178.642 136.632C178.603 136.546 178.556 136.487 178.485 136.422C178.414 136.357 178.324 136.292 178.193 136.229C177.94 136.108 177.559 136.003 177.128 135.939H177.115C176.771 135.886 176.438 135.814 176.128 135.701C175.818 135.588 175.52 135.428 175.267 135.201C175.094 135.045 174.956 134.862 174.866 134.664C174.686 134.269 174.759 133.921 174.968 133.691C175.183 133.46 175.537 133.326 175.976 133.317C176.623 133.303 177.243 133.602 177.686 133.812C177.889 133.914 178.032 134.124 177.993 134.278C177.964 134.438 177.769 134.489 177.559 134.387C177.113 134.17 176.692 133.98 176.281 133.989C175.978 133.996 175.75 134.094 175.627 134.229C175.505 134.365 175.497 134.511 175.56 134.65C175.596 134.729 175.634 134.782 175.691 134.834C175.749 134.886 175.836 134.944 175.951 135.001C176.18 135.116 176.532 135.215 176.926 135.273H176.94C177.314 135.331 177.67 135.41 177.997 135.529C178.333 135.655 178.654 135.821 178.92 136.061C179.093 136.217 179.244 136.414 179.337 136.618C179.529 137.04 179.451 137.407 179.222 137.651C179 137.896 178.625 138.043 178.146 138.054C177.415 138.063 176.639 137.721 176.12 137.432C175.917 137.317 175.798 137.1 175.846 136.952Z" fill="white"/>
<path d="M182.828 136.862L181.19 136.897L181.249 137.76C181.254 137.906 181.152 137.995 181.004 137.998C180.956 137.999 180.913 137.993 180.867 137.981C180.638 137.913 180.448 137.704 180.428 137.511L180.151 133.599C180.145 133.453 180.252 133.357 180.404 133.361C180.556 133.351 180.739 133.44 180.866 133.584L184.123 137.432C184.277 137.622 184.279 137.834 184.116 137.911C184.088 137.925 184.044 137.932 183.997 137.934C183.848 137.937 183.668 137.855 183.548 137.711L182.828 136.862ZM182.222 136.143L181.031 134.738L181.13 136.166L182.222 136.143Z" fill="white"/>
<path d="M183.773 135.551C183.17 134.227 183.809 133.148 185.178 133.119C185.751 133.107 186.384 133.286 186.949 133.6C187.181 133.721 187.319 133.964 187.266 134.132C187.21 134.293 186.976 134.331 186.747 134.203C186.358 133.992 185.924 133.862 185.52 133.87C185.035 133.88 184.691 134.068 184.525 134.377C184.343 134.68 184.337 135.086 184.542 135.534C184.74 135.969 185.112 136.366 185.563 136.656C186.005 136.953 186.511 137.121 186.996 137.111C187.333 137.104 187.605 136.998 187.806 136.841L187.395 135.938L186.431 135.959C186.222 135.964 185.968 135.796 185.875 135.592C185.779 135.381 185.883 135.22 186.092 135.215L187.42 135.186C187.427 135.186 187.427 135.186 187.427 135.186C187.434 135.186 187.434 135.186 187.434 135.186C187.65 135.181 187.897 135.336 187.993 135.546L188.656 137.002C188.677 137.048 188.676 137.075 188.687 137.114C188.686 137.127 188.689 137.134 188.689 137.147L188.692 137.154C188.698 137.214 188.682 137.267 188.636 137.315C188.358 137.647 187.912 137.85 187.339 137.862C185.969 137.891 184.373 136.868 183.773 135.551Z" fill="white"/>
<path d="M190.388 137.43L188.618 133.543C188.525 133.339 188.615 133.177 188.824 133.173H188.831C188.831 133.173 188.831 133.173 188.844 133.173L191.029 133.126C191.225 133.122 191.472 133.276 191.565 133.48C191.658 133.684 191.557 133.853 191.362 133.857L189.535 133.896L190.084 135.102L191.655 135.068C191.857 135.064 192.104 135.231 192.191 135.422C192.284 135.626 192.19 135.795 191.988 135.799L190.417 135.833L190.969 137.045L192.796 137.006C192.991 137.002 193.242 137.163 193.335 137.367C193.425 137.564 193.324 137.733 193.129 137.737L190.944 137.784C190.931 137.784 190.928 137.778 190.928 137.778L190.924 137.785C190.715 137.789 190.478 137.628 190.388 137.43Z" fill="white"/>
<path d="M193.884 136.563C193.939 136.416 194.152 136.391 194.355 136.506C194.759 136.737 195.398 137.002 195.874 136.985C196.211 136.978 196.47 136.873 196.606 136.723C196.742 136.574 196.755 136.407 196.68 136.243C196.641 136.157 196.594 136.098 196.523 136.033C196.453 135.968 196.361 135.903 196.231 135.84C195.978 135.719 195.597 135.614 195.166 135.55H195.153C194.809 135.497 194.476 135.425 194.165 135.312C193.855 135.199 193.557 135.039 193.305 134.812C193.131 134.656 192.994 134.472 192.904 134.275C192.724 133.88 192.797 133.532 193.005 133.302C193.22 133.071 193.575 132.937 194.013 132.928C194.66 132.914 195.28 133.213 195.723 133.423C195.926 133.525 196.069 133.735 196.03 133.889C196.001 134.049 195.806 134.1 195.596 133.998C195.15 133.781 194.73 133.591 194.319 133.6C194.015 133.607 193.788 133.705 193.665 133.84C193.543 133.976 193.535 134.122 193.598 134.261C193.634 134.34 193.672 134.393 193.729 134.445C193.787 134.497 193.875 134.555 193.989 134.612C194.218 134.727 194.57 134.826 194.964 134.884H194.977C195.351 134.942 195.707 135.021 196.033 135.14C196.37 135.266 196.691 135.432 196.957 135.672C197.13 135.828 197.28 136.024 197.373 136.229C197.565 136.651 197.487 137.018 197.259 137.262C197.036 137.507 196.661 137.654 196.182 137.665C195.45 137.674 194.675 137.332 194.156 137.044C193.954 136.928 193.835 136.711 193.884 136.563Z" fill="white"/>
<path d="M258.996 198.32L285.383 256.261L271.523 256.595L277.924 270.65L257.137 256.905L183.707 258.489L157.305 200.513L258.996 198.32Z" fill="#22211F"/>
<path d="M202.125 228.819C203.309 231.419 202.111 233.573 199.45 233.63C196.789 233.687 193.672 231.626 192.488 229.027C191.304 226.427 192.501 224.273 195.162 224.216C197.824 224.158 200.941 226.219 202.125 228.819Z" fill="white"/>
<path d="M226.17 228.3C227.354 230.9 226.157 233.054 223.496 233.111C220.835 233.168 217.718 231.107 216.534 228.508C215.35 225.908 216.548 223.754 219.208 223.697C221.869 223.639 224.986 225.7 226.17 228.3Z" fill="white"/>
<path d="M250.215 227.781C251.399 230.381 250.201 232.535 247.54 232.592C244.879 232.649 241.762 230.588 240.578 227.989C239.394 225.389 240.592 223.235 243.253 223.178C245.914 223.12 249.031 225.182 250.215 227.781Z" fill="white"/>
<path d="M297.801 334.163L243.571 335.333C238.887 335.434 233.399 331.806 231.315 327.229L227.666 319.217C225.582 314.64 227.69 310.848 232.374 310.747L286.604 309.577C291.289 309.476 296.776 313.104 298.86 317.681L302.509 325.693C304.594 330.27 302.486 334.062 297.801 334.163Z" fill="#EBEBEB"/>
<path d="M295.998 330.203L241.768 331.373C237.084 331.474 231.596 327.846 229.512 323.269L225.863 315.257C223.779 310.68 225.887 306.888 230.571 306.787L284.801 305.617C289.485 305.516 294.973 309.144 297.057 313.721L300.706 321.733C302.79 326.31 300.683 330.102 295.998 330.203Z" fill="#22211F"/>
<path d="M244.176 321.939C244.304 321.599 244.796 321.542 245.262 321.808C246.195 322.34 247.666 322.952 248.763 322.913C249.54 322.896 250.135 322.654 250.45 322.31C250.764 321.966 250.793 321.582 250.62 321.202C250.53 321.005 250.421 320.869 250.259 320.719C250.097 320.57 249.888 320.421 249.585 320.274C249.003 319.996 248.124 319.754 247.131 319.607L247.1 319.608C246.308 319.487 245.541 319.32 244.825 319.059C244.11 318.799 243.425 318.43 242.841 317.906C242.442 317.547 242.124 317.124 241.917 316.669C241.502 315.758 241.671 314.957 242.151 314.426C242.647 313.894 243.463 313.585 244.473 313.563C245.965 313.531 247.393 314.22 248.414 314.705C248.882 314.94 249.212 315.424 249.123 315.778C249.056 316.147 248.607 316.264 248.123 316.029C247.095 315.53 246.127 315.091 245.178 315.111C244.479 315.126 243.954 315.352 243.673 315.665C243.391 315.978 243.373 316.316 243.518 316.635C243.601 316.817 243.687 316.938 243.821 317.058C243.954 317.177 244.156 317.311 244.42 317.443C244.949 317.707 245.759 317.935 246.667 318.069L246.698 318.068C247.559 318.203 248.38 318.384 249.133 318.66C249.908 318.95 250.648 319.333 251.261 319.886C251.66 320.246 252.007 320.698 252.222 321.169C252.664 322.141 252.485 322.988 251.957 323.551C251.444 324.115 250.579 324.455 249.476 324.478C247.791 324.499 246.003 323.71 244.806 323.046C244.338 322.779 244.064 322.28 244.176 321.939Z" fill="white"/>
<path d="M256.333 323.502L252.253 314.544C252.039 314.074 252.246 313.701 252.728 313.69H252.744C252.744 313.69 252.744 313.69 252.775 313.689L257.81 313.58C258.261 313.57 258.831 313.926 259.045 314.397C259.26 314.868 259.029 315.256 258.578 315.266L254.367 315.357L255.632 318.136L259.253 318.058C259.719 318.048 260.287 318.434 260.488 318.875C260.702 319.345 260.487 319.733 260.02 319.743L256.399 319.821L257.671 322.615L261.882 322.524C262.333 322.514 262.91 322.885 263.124 323.355C263.331 323.811 263.101 324.199 262.65 324.209L257.615 324.318C257.584 324.319 257.577 324.303 257.577 324.303L257.568 324.319C257.087 324.329 256.541 323.957 256.333 323.502Z" fill="white"/>
<path d="M267.885 323.253C268.092 323.709 267.877 324.097 267.426 324.106C266.945 324.116 266.398 323.745 266.191 323.289L262.174 314.467C262.174 314.467 262.174 314.467 262.167 314.452C262.034 314.194 262.034 313.918 262.19 313.746C262.462 313.479 263.024 313.544 263.454 313.903L271.565 320.581L268.716 314.325C268.515 313.885 268.715 313.497 269.182 313.487C269.648 313.477 270.21 313.848 270.41 314.288L274.427 323.11C274.634 323.566 274.419 323.953 273.953 323.964C273.704 323.969 273.416 323.853 273.178 323.674C273.133 323.644 273.088 323.615 273.058 323.584L265.015 316.95L267.885 323.253Z" fill="white"/>
<path d="M278.01 323.034L273.931 314.076C273.717 313.606 273.923 313.233 274.405 313.223L276.239 313.183C279.238 313.118 282.748 315.45 284.076 318.365C285.417 321.31 284.078 323.746 281.079 323.811L279.245 323.85C278.763 323.861 278.217 323.49 278.01 323.034ZM279.347 322.147L280.311 322.126C282.355 322.066 283.27 320.421 282.35 318.402C281.444 316.413 279.057 314.824 277.006 314.868L276.042 314.889L279.347 322.147Z" fill="white"/>
<path d="M146.53 247.781C139.947 244.306 128.201 239.764 123.887 248.482C121.549 253.198 122.592 258.37 123.866 263.256C134.421 302.361 150.176 345.196 161.209 384.214C150.176 358.239 140.697 331.672 132.167 304.78C127.979 291.267 123.903 277.754 121.174 263.828C120.117 258.464 119.449 252.645 122.271 247.647C127.379 238.318 139.722 243.162 146.53 247.781Z" fill="#263238"/>
<path d="M258.321 274.989C259.691 280.835 259.701 286.973 258.321 292.818C256.941 286.973 256.952 280.835 258.321 274.989Z" fill="#263238"/>
<path d="M228.897 286.65C233.999 289.815 238.347 294.148 241.504 299.257C236.395 296.1 232.063 291.753 228.897 286.65Z" fill="#263238"/>
<path d="M227.998 345.126C231.163 340.023 235.496 335.676 240.605 332.519C237.448 337.629 233.101 341.961 227.998 345.126Z" fill="#263238"/>
<path d="M257.05 357.687C255.68 351.841 255.67 345.703 257.05 339.858C258.43 345.703 258.42 351.84 257.05 357.687Z" fill="#263238"/>
<path d="M286.474 346.025C281.371 342.86 277.024 338.527 273.867 333.418C278.976 336.575 283.309 340.923 286.474 346.025Z" fill="#263238"/>
<path d="M299.034 316.974C293.188 318.344 287.05 318.354 281.205 316.974C287.051 315.593 293.188 315.604 299.034 316.974Z" fill="#263238"/>
<path d="M216.337 315.702C222.183 314.332 228.321 314.322 234.166 315.702C228.32 317.082 222.183 317.072 216.337 315.702Z" fill="#263238"/>
<path d="M272.996 330.699C346.002 351.385 339.016 463.642 390.926 446.793C426.278 435.319 404.752 382.575 370.265 401.197C335.778 419.819 323.468 462.533 270.103 459.873C216.738 457.213 182.478 346.92 131.842 329.383" stroke="#263238" stroke-width="0.75" stroke-miterlimit="10" stroke-dasharray="4 5"/>
<path d="M366.413 130.169C270.248 225.192 106.335 280.939 79.114 236.664C68.596 219.557 98.553 197.524 116.788 184.972" stroke="#263238" stroke-width="0.75" stroke-miterlimit="10" stroke-dasharray="4 5"/>
<path d="M359.214 109.024L354.18 141.906L373.951 118.926L457.03 68.535L359.214 109.024Z" fill="#22211F"/>
<path opacity="0.4" d="M359.214 109.024L354.18 141.906L373.951 118.926L457.03 68.535L359.214 109.024Z" fill="white"/>
<path d="M378.386 125.466L354.18 141.906L373.951 118.926L378.386 125.466Z" fill="#22211F"/>
<path opacity="0.1" d="M378.386 125.466L354.18 141.906L373.951 118.926L378.386 125.466Z" fill="black"/>
<path d="M373.951 118.926L457.03 68.535L397.893 154.918L373.951 118.926Z" fill="#22211F"/>
<path opacity="0.7" d="M373.951 118.926L457.03 68.535L397.893 154.918L373.951 118.926Z" fill="white"/>
<path d="M359.214 109.024L317.185 92.433L457.03 68.535L359.214 109.024Z" fill="#22211F"/>
<path opacity="0.7" d="M359.214 109.024L317.185 92.433L457.03 68.535L359.214 109.024Z" fill="white"/>
<path d="M129.839 309.477L141.652 333.913L120.721 320.734L43.842 301.366L129.839 309.477Z" fill="#22211F"/>
<path opacity="0.4" d="M129.839 309.477L141.652 333.913L120.721 320.734L43.842 301.366L129.839 309.477Z" fill="white"/>
<path d="M118.832 326.899L141.652 333.913L120.721 320.734L118.832 326.899Z" fill="#22211F"/>
<path opacity="0.1" d="M118.832 326.899L141.652 333.913L120.721 320.734L118.832 326.899Z" fill="black"/>
<path d="M120.721 320.734L43.842 301.366L110.684 354.547L120.721 320.734Z" fill="#22211F"/>
<path opacity="0.7" d="M120.721 320.734L43.842 301.366L110.684 354.547L120.721 320.734Z" fill="white"/>
<path d="M129.839 309.477L158.635 286.455L43.842 301.366L129.839 309.477Z" fill="#22211F"/>
<path opacity="0.7" d="M129.839 309.477L158.635 286.455L43.842 301.366L129.839 309.477Z" fill="white"/>
</svg>
